HIERARCHY
ROOT Hips
{
	OFFSET 55.660801 -14.017609 55.105698
	CHANNELS 6 Xposition Yposition Zposition Xrotation Yrotation Zrotation
	JOINT spine
	{
		OFFSET 0.000000 -0.467661 8.132488
		CHANNELS 3 Xrotation Yrotation Zrotation
		JOINT spine1
		{
			OFFSET 0.000000 -0.000002 10.349804
			CHANNELS 3 Xrotation Yrotation Zrotation
			JOINT spine2
			{
				OFFSET 0.000000 -0.000001 9.916992
				CHANNELS 3 Xrotation Yrotation Zrotation
				JOINT Neck
				{
					OFFSET 0.000000 -1.213904 25.460999
					CHANNELS 3 Xrotation Yrotation Zrotation
					JOINT Head
					{
						OFFSET 0.000000 -0.000001 7.692451
						CHANNELS 3 Xrotation Yrotation Zrotation
						End Site
						{
							OFFSET 0.000000 6.140627 18.619995
						}
					}
				}
				JOINT RightShoulder
				{
					OFFSET -4.175751 0.581443 10.709602
					CHANNELS 3 Xrotation Yrotation Zrotation
					JOINT RightArm
					{
						OFFSET 0.000000 -0.000002 14.046600
						CHANNELS 3 Xrotation Yrotation Zrotation
						JOINT RightArmRoll
						{
							OFFSET 0.000000 -0.000002 7.090988
							CHANNELS 3 Xrotation Yrotation Zrotation
							JOINT RightForeArm
							{
								OFFSET 0.000000 -0.000003 20.653503
								CHANNELS 3 Xrotation Yrotation Zrotation
								JOINT RightForeArmRoll
								{
									OFFSET 0.000000 -0.000002 7.957184
									CHANNELS 3 Xrotation Yrotation Zrotation
									JOINT RightHand
									{
										OFFSET 0.000000 -0.000002 15.968292
										CHANNELS 3 Xrotation Yrotation Zrotation
										End Site
										{
											OFFSET 0.000000 0.000000 0.100006
										}
									}
								}
							}
						}
					}
				}
				JOINT LeftShoulder
				{
					OFFSET 4.175751 0.581443 10.709602
					CHANNELS 3 Xrotation Yrotation Zrotation
					JOINT LeftArm
					{
						OFFSET 0.000000 -0.000002 14.046600
						CHANNELS 3 Xrotation Yrotation Zrotation
						JOINT LeftArmRoll
						{
							OFFSET 0.000000 -0.000002 7.090988
							CHANNELS 3 Xrotation Yrotation Zrotation
							JOINT LeftForeArm
							{
								OFFSET 0.000000 -0.000003 20.653503
								CHANNELS 3 Xrotation Yrotation Zrotation
								JOINT LeftForeArmRoll
								{
									OFFSET 0.000000 -0.000002 7.957184
									CHANNELS 3 Xrotation Yrotation Zrotation
									JOINT LeftHand
									{
										OFFSET 0.000000 -0.000002 15.968292
										CHANNELS 3 Xrotation Yrotation Zrotation
										End Site
										{
											OFFSET 0.000000 0.000000 0.100006
										}
									}
								}
							}
						}
					}
				}
			}
		}
	}
	JOINT RightUpLeg
	{
		OFFSET -7.208340 1.108840 -1.321819
		CHANNELS 3 Xrotation Yrotation Zrotation
		JOINT RightUpLegRoll
		{
			OFFSET 0.000000 -0.000003 18.723804
			CHANNELS 3 Xrotation Yrotation Zrotation
			JOINT RightLeg
			{
				OFFSET 0.000000 0.000004 -23.186604
				CHANNELS 3 Xrotation Yrotation Zrotation
				JOINT RightLegRoll
				{
					OFFSET 0.000000 -0.000004 23.262402
					CHANNELS 3 Xrotation Yrotation Zrotation
					JOINT RightFoot
					{
						OFFSET 0.000000 -0.000004 19.362099
						CHANNELS 3 Xrotation Yrotation Zrotation
						JOINT RightToeBase
						{
							OFFSET 0.000000 -0.000002 16.185699
							CHANNELS 3 Xrotation Yrotation Zrotation
							End Site
							{
								OFFSET 0.006859 0.903521 7.838631
							}
						}
					}
				}
			}
		}
	}
	JOINT LeftUpLeg
	{
		OFFSET 7.208340 1.108840 -1.321819
		CHANNELS 3 Xrotation Yrotation Zrotation
		JOINT LeftUpLegRoll
		{
			OFFSET 0.000000 -0.000003 18.723904
			CHANNELS 3 Xrotation Yrotation Zrotation
			JOINT LeftLeg
			{
				OFFSET 0.000000 -0.000004 23.186501
				CHANNELS 3 Xrotation Yrotation Zrotation
				JOINT LeftLegRoll
				{
					OFFSET 0.000000 -0.000004 23.477501
					CHANNELS 3 Xrotation Yrotation Zrotation
					JOINT LeftFoot
					{
						OFFSET 0.000000 -0.000004 19.147003
						CHANNELS 3 Xrotation Yrotation Zrotation
						JOINT LeftToeBase
						{
							OFFSET 0.000000 -0.000002 16.185699
							CHANNELS 3 Xrotation Yrotation Zrotation
							End Site
							{
								OFFSET -0.030746 0.903521 7.838623
							}
						}
					}
				}
			}
		}
	}
}
MOTION
Frames: 13
Frame Time: 0.041667
55.341297 -53.445625 96.673569 -3.333458 0.481338 -2.377654 -1.709586 -0.253177 0.099231 0.600374 -0.510837 0.195940 2.245468 -0.508425 0.202022 13.302608 2.245885 -5.093342 0.678709 -0.884780 -5.131439 -17.699320 -59.008948 -20.918037 -47.037368 -120.186071 -19.082422 -0.000001 -0.000001 -0.000006 0.642907 -2.400401 -0.433057 0.000000 0.000004 -3.002740 -5.000173 -7.999810 0.000021 -18.524981 60.460978 21.898360 -44.617296 116.362299 32.875142 0.000001 0.000006 -0.000004 0.072859 8.502914 1.026106 0.000001 -0.000011 3.023851 -5.000222 7.998944 -0.000136 -1.516523 -174.704846 3.157693 -179.999991 0.000004 -1.142002 172.212920 -2.347184 -0.442888 0.000004 0.000004 0.081685 68.299672 6.931985 2.085402 25.456953 -7.355616 -0.000000 -0.480034 175.621157 -0.632034 -0.000020 -0.000004 -1.134550 -9.548774 1.720541 0.514969 0.000006 0.000002 -0.152639 69.496478 -6.894644 -2.066132 25.678004 7.354382 -0.329575 
55.339195 -53.423225 96.677673 -3.323024 0.474760 -2.367094 -1.713107 -0.253808 0.095715 0.592139 -0.511792 0.188702 2.237239 -0.509468 0.194797 13.365324 2.284672 -5.093395 0.641150 -0.917319 -5.128396 -17.615099 -58.992521 -20.817985 -46.987634 -120.189514 -19.011116 -0.000001 -0.000001 -0.000007 0.643107 -2.385822 -0.433069 -0.000002 0.000005 -3.002741 -5.000174 -7.999811 0.000023 -18.519372 60.508277 21.891911 -44.646191 116.320348 32.909805 0.000003 0.000005 -0.000007 0.072859 8.511715 1.020475 -0.000002 -0.000012 3.023861 -5.000225 7.998944 -0.000134 -1.539800 -174.693918 3.163160 -179.999991 0.000005 -1.142003 172.194287 -2.352034 -0.444329 0.000004 0.000003 0.081657 68.306188 6.931960 2.085487 25.456952 -7.355616 -0.000000 -0.511988 175.634175 -0.611537 -0.000020 -0.000004 -1.134550 -9.571218 1.709522 0.515047 0.000006 0.000002 -0.152674 69.503247 -6.894650 -2.066111 25.674773 7.354379 -0.324676 
55.343395 -53.425117 96.679459 -3.311764 0.467821 -2.355819 -1.717015 -0.254502 0.091967 0.583078 -0.512835 0.180987 2.228178 -0.510606 0.187097 13.432880 2.326343 -5.093515 0.600247 -0.952196 -5.125155 -17.525116 -58.974920 -20.711082 -46.932624 -120.193052 -18.932702 -0.000002 0.000000 -0.000006 0.643900 -2.370319 -0.433073 -0.000001 0.000003 -3.002741 -5.000171 -7.999812 0.000019 -18.513424 60.558827 21.885051 -44.677647 116.274313 32.947224 0.000002 0.000004 -0.000006 0.072857 8.521125 1.014496 0.000000 -0.000011 3.023882 -5.000225 7.998943 -0.000134 -1.564463 -174.681965 3.168862 -179.999991 0.000005 -1.142002 172.174712 -2.356876 -0.445813 0.000004 0.000004 0.081613 68.313039 6.931994 2.085464 25.456950 -7.355614 -0.000000 -0.546137 175.649202 -0.589747 -0.000020 -0.000004 -1.134550 -9.595352 1.697764 0.515136 0.000006 0.000003 -0.152728 69.510651 -6.894647 -2.066152 25.671242 7.354389 -0.319444 
55.340096 -53.428127 96.682579 -3.299926 0.460636 -2.344041 -1.721207 -0.255241 0.088053 0.573444 -0.513939 0.172937 2.218538 -0.511808 0.179064 13.503773 2.370057 -5.093734 0.557001 -0.988710 -5.121810 -17.431054 -58.956376 -20.599357 -46.875711 -120.195743 -18.851377 -0.000001 0.000000 -0.000004 0.645106 -2.354171 -0.433086 -0.000000 0.000004 -3.002740 -5.000171 -7.999811 0.000019 -18.507267 60.611672 21.877939 -44.709920 116.225982 32.985459 0.000002 0.000004 -0.000004 0.072861 8.530966 1.008251 0.000002 -0.000011 3.023912 -5.000225 7.998943 -0.000136 -1.590099 -174.669029 3.174727 -179.999991 0.000005 -1.142002 172.154385 -2.361714 -0.447331 0.000005 0.000004 0.081561 68.320190 6.931978 2.085413 25.456953 -7.355615 0.000000 -0.581828 175.664215 -0.567047 -0.000020 -0.000005 -1.134550 -9.620671 1.685480 0.515229 0.000006 0.000003 -0.152793 69.518587 -6.894661 -2.066160 25.667600 7.354386 -0.313992 
55.334095 -53.421318 96.683578 -3.287755 0.453311 -2.331990 -1.725548 -0.256005 0.084045 0.563477 -0.515076 0.164696 2.208579 -0.513047 0.170839 13.576691 2.414926 -5.094080 0.512406 -1.026169 -5.118424 -17.334766 -58.937374 -20.485018 -46.816388 -120.198598 -18.766997 -0.000002 0.000001 -0.000004 0.646555 -2.337643 -0.433106 0.000001 0.000002 -3.002740 -5.000171 -7.999811 0.000022 -18.500988 60.665870 21.870679 -44.742582 116.176491 33.024026 0.000004 0.000004 -0.000006 0.072859 8.541046 1.001872 0.000001 -0.000012 3.023940 -5.000224 7.998944 -0.000135 -1.616298 -174.656120 3.180688 -179.999991 0.000005 -1.142003 172.133676 -2.366550 -0.448869 0.000004 0.000004 0.081502 68.327457 6.931965 2.085454 25.456957 -7.355617 0.000001 -0.618400 175.679241 -0.543834 -0.000020 -0.000005 -1.134550 -9.646671 1.672899 0.515317 0.000006 0.000003 -0.152866 69.526831 -6.894655 -2.066146 25.663758 7.354392 -0.308383 
55.343998 -53.418625 96.672485 -3.275499 0.445955 -2.319858 -1.729927 -0.256776 0.080013 0.553432 -0.516219 0.156407 2.198529 -0.514291 0.162566 13.650027 2.460079 -5.094536 0.467481 -1.063854 -5.115080 -17.237951 -58.918066 -20.370061 -46.756927 -120.201426 -18.682205 0.000000 0.000001 -0.000004 0.648060 -2.321033 -0.433127 -0.000000 0.000002 -3.002740 -5.000171 -7.999811 0.000020 -18.494680 60.720382 21.863367 -44.776309 116.126098 33.063764 0.000004 0.000005 -0.000007 0.072858 8.551195 0.995457 0.000002 -0.000011 3.023972 -5.000223 7.998943 -0.000135 -1.642625 -174.643183 3.186665 -179.999991 0.000005 -1.142002 172.112858 -2.371383 -0.449416 0.000004 0.000004 0.081443 68.334724 6.931992 2.085404 25.456957 -7.355616 0.000000 -0.655189 175.694281 -0.520507 -0.000020 -0.000005 -1.134550 -9.672829 1.660250 0.515397 0.000006 0.000002 -0.152940 69.535198 -6.894647 -2.066122 25.660027 7.354395 -0.302768 
55.345196 -53.415024 96.677368 -3.263408 0.438676 -2.307858 -1.734225 -0.257532 0.076028 0.543550 -0.517342 0.148214 2.188649 -0.515514 0.154387 13.722468 2.504666 -5.095126 0.423224 -1.101090 -5.111837 -17.142352 -58.898845 -20.256562 -46.697918 -120.204472 -18.598315 0.000001 -0.000001 -0.000008 0.649447 -2.304595 -0.433145 -0.000001 0.000002 -3.002745 -5.000173 -7.999810 0.000023 -18.488427 60.774272 21.856100 -44.809466 116.076674 33.102846 0.000005 0.000004 -0.000006 0.072856 8.561214 0.989110 0.000003 -0.000011 3.023992 -5.000222 7.998943 -0.000136 -1.668673 -174.630274 3.192577 -179.999991 0.000004 -1.142003 172.092258 -2.376217 -0.450955 0.000004 0.000004 0.081385 68.341985 6.931981 2.085444 25.456952 -7.355615 0.000001 -0.691537 175.709307 -0.497464 -0.000020 -0.000004 -1.134550 -9.698659 1.647742 0.515460 0.000005 0.000003 -0.153010 69.543333 -6.894633 -2.066114 25.656282 7.354387 -0.297198 
55.352795 -53.427422 96.675568 -3.251735 0.431581 -2.296220 -1.738326 -0.258256 0.072161 0.534078 -0.518416 0.140258 2.179179 -0.516686 0.146448 13.792506 2.547809 -5.095818 0.380639 -1.137165 -5.108777 -17.049786 -58.880158 -20.146695 -46.641624 -120.207559 -18.517941 -0.000002 0.000000 -0.000007 0.650535 -2.288634 -0.433157 0.000001 0.000002 -3.002743 -5.000174 -7.999810 0.000022 -18.482266 60.826407 21.848911 -44.841572 116.029355 33.140751 0.000003 0.000005 -0.000005 0.072860 8.570935 0.982946 0.000001 -0.000011 3.024020 -5.000224 7.998942 -0.000135 -1.694040 -174.617338 3.198340 -179.999991 0.000005 -1.142003 172.072150 -2.381054 -0.452479 0.000004 0.000004 0.081335 68.349040 6.931987 2.085403 25.456953 -7.355616 0.000001 -0.726782 175.724348 -0.475103 -0.000020 -0.000004 -1.134550 -9.723639 1.635613 0.515506 0.000006 0.000002 -0.153072 69.551167 -6.894635 -2.066128 25.652647 7.354392 -0.291809 
55.352097 -53.421223 96.675568 -3.240721 0.424781 -2.285139 -1.742126 -0.258927 0.068481 0.525265 -0.519418 0.132684 2.170369 -0.517780 0.138888 13.858730 2.588626 -5.096598 0.340732 -1.171370 -5.105936 -16.961957 -58.862208 -20.042446 -46.588789 -120.211002 -18.442341 -0.000001 0.000000 -0.000005 0.651150 -2.273405 -0.433170 -0.000002 0.000003 -3.002742 -5.000175 -7.999810 0.000022 -18.476406 60.876021 21.842069 -44.872034 115.985164 33.176879 0.000003 0.000004 -0.000005 0.072859 8.580154 0.977067 0.000002 -0.000012 3.024041 -5.000224 7.998943 -0.000134 -1.718291 -174.605412 3.203896 -179.999991 0.000005 -1.142002 172.052834 -2.385894 -0.453971 0.000004 0.000004 0.081296 68.355775 6.931971 2.085477 25.456957 -7.355616 0.000001 -0.760266 175.738377 -0.453808 -0.000020 -0.000004 -1.134550 -9.747273 1.624075 0.515528 0.000006 0.000002 -0.153120 69.558366 -6.894647 -2.066183 25.649218 7.354392 -0.286680 
55.338497 -53.401028 96.673569 -3.230615 0.418379 -2.274835 -1.745498 -0.259528 0.065059 0.517358 -0.520319 0.125634 2.162458 -0.518767 0.131851 13.919516 2.626263 -5.097429 0.304511 -1.203013 -5.103377 -16.880594 -58.845481 -19.945903 -46.540301 -120.215195 -18.372961 -0.000002 0.000000 -0.000006 0.651114 -2.259204 -0.433180 -0.000002 0.000002 -3.002744 -5.000174 -7.999810 0.000018 -18.470860 60.921988 21.835597 -44.901664 115.944442 33.212177 0.000004 0.000003 -0.000008 0.072861 8.588715 0.971585 -0.000000 -0.000011 3.024051 -5.000222 7.998942 -0.000134 -1.741025 -174.594470 3.209187 -179.999991 0.000005 -1.142003 172.034625 -2.389751 -0.455283 0.000004 0.000004 0.081272 68.362100 6.931993 2.085484 25.456955 -7.355616 -0.000000 -0.791328 175.752392 -0.433985 -0.000020 -0.000004 -1.134550 -9.769039 1.613364 0.515527 0.000006 0.000002 -0.153149 69.564835 -6.894661 -2.066082 25.646087 7.354385 -0.281925 
55.346195 -53.403625 96.673874 -3.221687 0.412485 -2.265522 -1.748317 -0.260037 0.061966 0.510602 -0.521093 0.119254 2.155709 -0.519620 0.125482 13.973663 2.659850 -5.098279 0.272978 -1.231386 -5.101155 -16.807455 -58.830257 -19.859110 -46.498114 -120.219785 -18.312176 -0.000001 -0.000001 -0.000008 0.650248 -2.246308 -0.433186 0.000001 0.000003 -3.002739 -5.000173 -7.999812 0.000020 -18.465753 60.963373 21.829607 -44.928752 115.909062 33.244754 0.000004 0.000004 -0.000006 0.072858 8.596415 0.966603 0.000000 -0.000011 3.024052 -5.000222 7.998944 -0.000135 -1.761818 -174.583542 3.214092 -179.999991 0.000005 -1.142003 172.017795 -2.394605 -0.456678 0.000004 0.000004 0.081269 68.367994 6.931988 2.085413 25.456952 -7.355616 0.000001 -0.819308 175.764441 -0.416001 -0.000020 -0.000005 -1.134550 -9.788451 1.603701 0.515500 0.000006 0.000002 -0.153153 69.570326 -6.894637 -2.066137 25.643151 7.354381 -0.277613 
55.356899 -53.408028 96.676987 -3.214151 0.407206 -2.257413 -1.750468 -0.260436 0.059272 0.505246 -0.521716 0.113684 2.150348 -0.520311 0.119922 14.019447 2.688509 -5.099102 0.247140 -1.255788 -5.099324 -16.744296 -58.817047 -19.784176 -46.463287 -120.225222 -18.261479 0.000000 0.000000 -0.000006 0.648368 -2.234988 -0.433179 0.000001 0.000002 -3.002741 -5.000175 -7.999810 0.000022 -18.461173 60.999224 21.824234 -44.952637 115.880088 33.273932 0.000004 0.000005 -0.000005 0.072860 8.603076 0.962235 -0.000000 -0.000011 3.024042 -5.000224 7.998944 -0.000134 -1.780268 -174.574608 3.218581 -179.999991 0.000005 -1.142003 172.002659 -2.398467 -0.457866 0.000004 0.000004 0.081290 68.373158 6.931996 2.085490 25.456952 -7.355615 -0.000000 -0.843549 175.775451 -0.400265 -0.000020 -0.000005 -1.134550 -9.804997 1.595304 0.515444 0.000006 0.000002 -0.153128 69.574575 -6.894667 -2.066078 25.640629 7.354381 -0.273878 
55.350998 -53.402424 96.675278 -3.208281 0.402646 -2.250720 -1.751847 -0.260705 0.057048 0.501536 -0.522159 0.109069 2.146639 -0.520811 0.115313 14.055662 2.711378 -5.099876 0.228008 -1.275520 -5.097914 -16.692822 -58.806132 -19.723105 -46.437787 -120.231178 -18.223635 -0.000001 -0.000000 -0.000008 0.645307 -2.225530 -0.433166 -0.000002 0.000002 -3.002743 -5.000171 -7.999811 0.000022 -18.457234 61.028505 21.819608 -44.972861 115.858600 33.299225 0.000002 0.000005 -0.000004 0.072858 8.608515 0.958580 0.000000 -0.000012 3.024021 -5.000222 7.998944 -0.000135 -1.795940 -174.566644 3.222559 -179.999991 0.000005 -1.142003 171.989505 -2.401366 -0.458835 0.000005 0.000004 0.081338 68.377686 6.931998 2.085406 25.456957 -7.355613 -0.000001 -0.863382 175.784481 -0.387154 -0.000020 -0.000005 -1.134550 -9.818158 1.588402 0.515358 0.000006 0.000002 -0.153068 69.577430 -6.894676 -2.066102 25.638613 7.354380 -0.270818 
